/* XPM */
static char *error_icon[] = {
/* columns rows colors chars-per-pixel */
"20 14 119 2",
"   c gray34",
".  c #585858",
"X  c gray35",
"o  c #5A5A5A",
"O  c #5B5B5B",
"+  c gray36",
"@  c #5D5D5D",
"#  c gray37",
"$  c #606060",
"%  c gray38",
"&  c gray39",
"*  c #646464",
"=  c #656565",
"-  c gray40",
";  c #676767",
":  c #686868",
">  c DimGray",
",  c gray42",
"<  c #6C6C6C",
"1  c #6D6D6D",
"2  c gray43",
"3  c #6F6F6F",
"4  c gray44",
"5  c #717171",
"6  c #727272",
"7  c gray45",
"8  c gray46",
"9  c #767676",
"0  c gray48",
"q  c #7B7B7B",
"w  c #7C7C7C",
"e  c gray50",
"r  c #818181",
"t  c gray51",
"y  c #848484",
"u  c #868686",
"i  c gray53",
"p  c gray54",
"a  c #8B8B8B",
"s  c gray55",
"d  c #8D8D8D",
"f  c gray57",
"g  c #929292",
"h  c #939393",
"j  c gray59",
"k  c #989898",
"l  c gray60",
"z  c #9B9B9B",
"x  c #9D9D9D",
"c  c gray62",
"v  c #9F9F9F",
"b  c #A0A0A0",
"n  c gray63",
"m  c #A2A2A2",
"M  c gray64",
"N  c #A5A5A5",
"B  c gray65",
"V  c #A9A9A9",
"C  c gray67",
"Z  c #AFAFAF",
"A  c gray70",
"S  c gray71",
"D  c #B7B7B7",
"F  c gray73",
"G  c #BBBBBB",
"H  c #BCBCBC",
"J  c gray74",
"K  c gray75",
"L  c #C0C0C0",
"P  c #C1C1C1",
"I  c gray76",
"U  c #C3C3C3",
"Y  c gray77",
"T  c #C5C5C5",
"R  c #C6C6C6",
"E  c gray78",
"W  c #CBCBCB",
"Q  c #CDCDCD",
"!  c #CECECE",
"~  c #D0D0D0",
"^  c LightGray",
"/  c gray83",
"(  c #D5D5D5",
")  c gray84",
"_  c #D7D7D7",
"`  c #D8D8D8",
"'  c gray85",
"]  c #DADADA",
"[  c gainsboro",
"{  c #DFDFDF",
"}  c gray88",
"|  c #E1E1E1",
" . c gray89",
".. c #E4E4E4",
"X. c #E6E6E6",
"o. c #E7E7E7",
"O. c gray91",
"+. c #E9E9E9",
"@. c #EAEAEA",
"#. c gray92",
"$. c #ECECEC",
"%. c gray93",
"&. c #EEEEEE",
"*. c #EFEFEF",
"=. c gray94",
"-. c gray95",
";. c #F3F3F3",
":. c #F4F4F4",
">. c gray96",
",. c #F6F6F6",
"<. c gray97",
"1. c #F8F8F8",
"2. c #F9F9F9",
"3. c gray98",
"4. c #FBFBFB",
"5. c #FDFDFD",
"6. c #FEFEFE",
"7. c gray100",
"8. c None",
/* pixels */
"D V V C V G T T J J G D 8.D f t q 8 2 2 ",
"B x x x l M _ <.;.*.8.8.:.L 8 2 ; & & & ",
"B l l h f d f T <.8.8.6.T 7 , , & ; & & ",
"x f f D f p p t 8.8.6.T 7 , & & x 7 O & ",
"l p d X.[ d q q 7 8.C 2 ; & ; G <.2 O O ",
"f t i [ 6. .i 2 8.8., ; & ; T 6.*.2 O O ",
"d q q [ 6.6.*.p ; 8.; & 2 ! 6.<.O., O O ",
"i 7 8 [ 6.6.6.( t 8.8.7 J ;.*.;.X.; O O ",
"t 2 7 [ 6.:.( ! ;.l 8.8.! L  .O.[ ;   O ",
"q ; ; ( :.W ^ <.6.:.;.8.8.! G _ ( ;     ",
"7 & & J ( X.<.:.;.;.*.*.8.*._ L L ;     ",
", & & A *.;.*.*.O.O.X.8.8.[  . .J ; O O ",
"2 & & L ;.X. . .[  .8.8._ _ _ [ ! ;     ",
"2 O O f B M M x M M 8.x x x x M l O     "
};
