/* XPM */
static char *messages_icon[] = {
/* columns rows colors chars-per-pixel */
"20 14 244 2",
"   c #AF0A00",
".  c #B00A00",
"X  c #B00B00",
"o  c #B30B00",
"O  c #B10E00",
"+  c #B60B00",
"@  c #B60C00",
"#  c #B70C00",
"$  c #BF0500",
"%  c #BA0D00",
"&  c #BF0E00",
"*  c #B11000",
"=  c #B51100",
"-  c #B51101",
";  c #B71201",
":  c #B61203",
">  c #BD1301",
",  c #BC1505",
"<  c #B41F11",
"1  c #B62F23",
"2  c #B63327",
"3  c #B73427",
"4  c #B63429",
"5  c #BF3729",
"6  c #C10800",
"7  c #C10B00",
"8  c #C20E00",
"9  c #C21000",
"0  c #C31100",
"q  c #C31200",
"w  c #C31203",
"e  c #C31303",
"r  c #C31402",
"t  c #C31706",
"y  c #C41606",
"u  c #C41706",
"i  c #C41708",
"p  c #C51807",
"a  c #C51A0A",
"s  c #C71D0B",
"d  c #C61D0C",
"f  c #C61E0D",
"g  c #C61F0E",
"h  c #C72110",
"j  c #C72111",
"k  c #C72211",
"l  c #C72315",
"z  c #C72414",
"x  c #C82413",
"c  c #CA2818",
"v  c #CA2A1A",
"b  c #CB2C1C",
"n  c #C63425",
"m  c #C3382A",
"M  c #C63B2D",
"N  c #CB3021",
"B  c #CA3323",
"V  c #CA3425",
"C  c #CB3425",
"Z  c #CA3527",
"A  c #CB3526",
"S  c #CC3020",
"D  c #CC3223",
"F  c #CC392A",
"G  c #CC392C",
"H  c #CC3A2C",
"J  c #CC3C2D",
"K  c #CC3E30",
"L  c #CC3F30",
"P  c #CD3E30",
"I  c #CF3F31",
"U  c #CE4032",
"Y  c #CE4234",
"T  c #CE4437",
"R  c #D14B3E",
"E  c #CF4D40",
"W  c #D04D41",
"Q  c #D14F43",
"!  c #D24E41",
"~  c #D05043",
"^  c #D1564C",
"/  c #D4564A",
"(  c #D4584B",
")  c #D4584C",
"_  c #D55E52",
"`  c #D65C50",
"'  c #D56156",
"]  c #D66055",
"[  c #D66155",
"{  c #D76256",
"}  c #D86559",
"|  c #D8675B",
" . c #D8695D",
".. c #D86A5F",
"X. c #CF7972",
"o. c #D76A60",
"O. c #D96C61",
"+. c #DB7064",
"@. c #DB7369",
"#. c #DA7469",
"$. c #D8766D",
"%. c #DB766C",
"&. c #DC7469",
"*. c #DE7B71",
"=. c #DE7D73",
"-. c #DC7E76",
";. c #DE7F75",
":. c #DD8076",
">. c #DD8078",
",. c #DF8178",
"<. c #DF8379",
"1. c #DE857C",
"2. c #BF8781",
"3. c #C3918C",
"4. c #C3918D",
"5. c #C2938E",
"6. c #C4928D",
"7. c #C5938E",
"8. c #C6948F",
"9. c #C89691",
"0. c #C99792",
"q. c #C89B97",
"w. c #D98782",
"e. c #DF8A81",
"r. c #DDA3A1",
"t. c #DFA6A0",
"y. c #D3B5B5",
"u. c #D7B3B3",
"i. c #D2BCBD",
"p. c #D6B8B9",
"a. c #DDB3B3",
"s. c #DFB3B3",
"d. c #DCB5B1",
"f. c #DCB6B5",
"g. c #D9BBBD",
"h. c #DCBABB",
"j. c #E08E85",
"k. c #E19188",
"l. c #E3958E",
"z. c #E39790",
"x. c #E39D95",
"c. c #E59B95",
"v. c #E5A29C",
"b. c #E1A6A0",
"n. c #E3A7A1",
"m. c #E5A6A2",
"M. c #E3ACA7",
"N. c #E2ADAA",
"B. c #E8ACA7",
"V. c #E3B4B1",
"C. c #E5B8B4",
"Z. c #E5BBB9",
"A. c #E6BDB9",
"S. c #ECB5B0",
"D. c #E8BAB6",
"F. c #EABBB5",
"G. c #CACCCE",
"H. c #D7D7D7",
"J. c #D5D9D9",
"K. c #D5D9DA",
"L. c #D5DADA",
"P. c #D4DCDC",
"I. c #D7DCDC",
"U. c #DCD7D6",
"Y. c #DDDFDF",
"T. c #DFDFDF",
"R. c #DCE1E2",
"E. c #DDE1E2",
"W. c #DDE2E2",
"Q. c #E1C6C7",
"!. c #E2C4C4",
"~. c #E5C4C3",
"^. c #E1C8C9",
"/. c #E3CFCF",
"(. c #E5CFCF",
"). c #EAC7C2",
"_. c #EACCCB",
"`. c #EFCECB",
"'. c #E1CFD0",
"]. c #EAD0CE",
"[. c #E2D5D4",
"{. c #E5DEDD",
"}. c #EDDBD9",
"|. c #F1D6D2",
" X c #F3D5D2",
".X c #F4D8D5",
"XX c #F0DFDD",
"oX c #F6DEDB",
"OX c #F5E2DF",
"+X c gray88",
"@X c #E0E3E3",
"#X c #E2E2E2",
"$X c #E1E5E6",
"%X c gray90",
"&X c #E6E6E6",
"*X c #E3E9EA",
"=X c #E7E9E9",
"-X c #E6EAEA",
";X c #E9E3E2",
":X c #EEE7E6",
">X c #E9EBEA",
",X c #EAEBEB",
"<X c #E8ECEB",
"1X c #EBEDED",
"2X c #EAEFEF",
"3X c #ECECEC",
"4X c #ECEEED",
"5X c #EEEFEF",
"6X c #E9EFF0",
"7X c #E7F5F5",
"8X c #E9F1F2",
"9X c #EDF0F0",
"0X c #EEF0F0",
"qX c #EDF4F4",
"wX c #E8F6F8",
"eX c #E8F8F9",
"rX c #EDF9FA",
"tX c #F1EDED",
"yX c #F7EBEA",
"uX c #F4EDED",
"iX c #F7EDED",
"pX c #F0F2F2",
"aX c #F0F3F3",
"sX c #F3F3F3",
"dX c #F2F5F5",
"fX c #F2F7F7",
"gX c #F3F6F6",
"hX c #F4F6F5",
"jX c #F4F7F8",
"kX c #F1F9F9",
"lX c #F5F9F9",
"zX c #F5F9FA",
"xX c #F5FBFB",
"cX c #F7FCFC",
"vX c #F6FFFF",
"bX c #F8F8F8",
"nX c #F9F8F9",
"mX c #F8FAFA",
"MX c #F8FFFF",
"NX c #FBFFFF",
"BX c #FDF8F8",
"VX c #FCFDFD",
"CX c #FEFFFF",
"ZX c gray100",
/* pixels */
"m.l.z.z.z.M.A.C.s.s.N.n.n.t.$./ W T V C ",
"k.,.,.;.=.e.].rXqX2X2X8XwXf.T b d q q e ",
"j.=.=.#.&.O.@.D.vXfXhXvXZ.G c j q q q > ",
"w.+.%.v.#.} { _ x.BXZXS.L z t t 1.J % : ",
";.}  .OX|. .W W J ;.c.N z e a B.mXM + : ",
"&.) _ .XZXoX' V F b z d 6 l D.ZXuXm + : ",
"o.W ~  XZXZXyX..a d p 6 B ).MXlX:Xm @ : ",
"' L U  XZXZXvX/.^ 6 $ F d.wX1XaX;X3   * ",
") N N  XZXgX/.~.iX:._ }.Q.g.{.&X{.3   * ",
"R d c `.gX!._.mXvXlXaXkXaXQ.u.L.U.3   * ",
"L e t V./.}.mXgXaXaX0X1X,X,X[.p.i.4   * ",
"C 8 t r.5XfX0X1X>X&X&X&X#XW.W.R.u.1   * ",
"C 8 , h.wX&X$XW.R.R.I.L.L.L.L.L.G.4   * ",
"n + : X.q.0.0.8.3.9.3.3.3.3.3.5.2.< O * "
};
