/* XPM */
static char *nomessages_icon[] = {
/* columns rows colors chars-per-pixel */
"20 14 124 2",
"   c gray34",
".  c #585858",
"X  c gray35",
"o  c #5A5A5A",
"O  c #5B5B5B",
"+  c gray36",
"@  c #5D5D5D",
"#  c gray37",
"$  c #606060",
"%  c gray38",
"&  c #626262",
"*  c gray39",
"=  c #646464",
"-  c #656565",
";  c gray40",
":  c #676767",
">  c #686868",
",  c DimGray",
"<  c #6A6A6A",
"1  c gray42",
"2  c #6C6C6C",
"3  c #6D6D6D",
"4  c gray43",
"5  c #6F6F6F",
"6  c #717171",
"7  c #727272",
"8  c gray45",
"9  c #747474",
"0  c #777777",
"q  c gray48",
"w  c #7B7B7B",
"e  c #7C7C7C",
"r  c gray50",
"t  c #808080",
"y  c #818181",
"u  c #848484",
"i  c gray52",
"p  c #868686",
"a  c gray53",
"s  c gray54",
"d  c #8B8B8B",
"f  c gray55",
"g  c #8D8D8D",
"h  c #909090",
"j  c gray57",
"k  c #929292",
"l  c #939393",
"z  c gray58",
"x  c #959595",
"c  c #989898",
"v  c gray60",
"b  c #9A9A9A",
"n  c #9B9B9B",
"m  c #9D9D9D",
"M  c gray62",
"N  c #9F9F9F",
"B  c #A0A0A0",
"V  c gray63",
"C  c gray64",
"Z  c #A4A4A4",
"A  c gray65",
"S  c gray66",
"D  c gray67",
"F  c #ACACAC",
"G  c #AEAEAE",
"H  c #AFAFAF",
"J  c #B1B1B1",
"K  c #B4B4B4",
"L  c gray71",
"P  c #B6B6B6",
"I  c #B9B9B9",
"U  c #BBBBBB",
"Y  c #BCBCBC",
"T  c gray74",
"R  c gray",
"E  c #C0C0C0",
"W  c gray76",
"Q  c #C3C3C3",
"!  c gray77",
"~  c #C5C5C5",
"^  c #C6C6C6",
"/  c gray78",
"(  c #CBCBCB",
")  c gray80",
"_  c #CECECE",
"`  c gray81",
"'  c LightGray",
"]  c gray83",
"[  c #D5D5D5",
"{  c gray84",
"}  c #D7D7D7",
"|  c #D8D8D8",
" . c #DADADA",
".. c gray86",
"X. c gainsboro",
"o. c gray87",
"O. c #DFDFDF",
"+. c gray88",
"@. c #E1E1E1",
"#. c #E2E2E2",
"$. c gray89",
"%. c #E4E4E4",
"&. c gray90",
"*. c #E6E6E6",
"=. c gray91",
"-. c #E9E9E9",
";. c #EAEAEA",
":. c gray92",
">. c gray93",
",. c #EEEEEE",
"<. c #EFEFEF",
"1. c gray94",
"2. c #F1F1F1",
"3. c gray95",
"4. c #F4F4F4",
"5. c gray96",
"6. c #F6F6F6",
"7. c gray97",
"8. c #F8F8F8",
"9. c #F9F9F9",
"0. c gray98",
"q. c #FDFDFD",
"w. c #FEFEFE",
"e. c gray100",
/* pixels */
"P S F F S I / Q T T I P P P k e e 9 5 5 ",
"S m m n n V } 7.3.>.>.3.7.T q 5 = = = = ",
"V n n k k g k Q e.9.7.9.Q 5 1 1 = = & & ",
"m k l P k s a a F 9.e.Q 9 1 = & m 9 O O ",
"n s g &.X.g q e 5 n J 5 1 = = T 7.5 O O ",
"l t a X.e.#.a 5 5 1 1 = & = Q e.>.5 O O ",
"g q e X.e.e.>.s 1 = = & 5 _ e.9.;.1 O O ",
"a 9 9 X.e.e.e.' e & & 5 T 7.>.3.#.1 O   ",
"t 5 5 } e.7.} / 3.m a X._ Q X.;.#.=   O ",
"q = 1 } 7./ ' 9.9.7.3.9.3._ I } } = O O ",
"5 = = Q } #.9.7.3.3.>.>.;.;.} Q Q =   O ",
"5 = = J >.3.3.>.;.;.&.&.#.#.#.X.T =   O ",
"5 & & Q 7.&.&.#.#.X.X.} } } } X._ = O   ",
"5 O O k Z Z Z m V V m m m m m V l O O O "
};
