/* XPM */
static char *messages_icon[] = {
/* columns rows colors chars-per-pixel */
"32 32 148 2",
"   c #AF0D00",
".  c #B20200",
"X  c #B10E00",
"o  c #BA0300",
"O  c #BE0D00",
"+  c #B31000",
"@  c #BB1000",
"#  c #BA1F10",
"$  c #BA3E32",
"%  c #A35149",
"&  c #A35851",
"*  c #A35B5A",
"=  c #AE5B53",
"-  c #A4615B",
";  c #BE635B",
":  c #BC685F",
">  c #A56660",
",  c #A67F7B",
"<  c #AF7974",
"1  c #B16A63",
"2  c #BD6962",
"3  c #C20500",
"4  c #C10D00",
"5  c #C21201",
"6  c #C4170B",
"7  c #C41807",
"8  c #C51C0B",
"9  c #C81D0E",
"0  c #C21F10",
"q  c #C5200F",
"w  c #C62110",
"e  c #C82414",
"r  c #C82718",
"t  c #C92A1B",
"y  c #CC3324",
"u  c #CD3A2B",
"i  c #CD3E30",
"p  c #CD4234",
"a  c #CD4538",
"s  c #CE493C",
"d  c #D04739",
"f  c #D1493A",
"g  c #C0564E",
"h  c #CF5147",
"j  c #D04E41",
"k  c #D15246",
"l  c #D25549",
"z  c #D3594E",
"x  c #D55E52",
"c  c #D66054",
"v  c #D6655A",
"b  c #D8665A",
"n  c #D8695D",
"m  c #C36A62",
"M  c #CA6E65",
"N  c #D96D62",
"B  c #D77369",
"V  c #DA7065",
"C  c #DA7369",
"Z  c #DC796E",
"A  c #D67873",
"S  c #DC7C73",
"D  c #A7807B",
"F  c #A8807C",
"G  c #DF8177",
"H  c #DE837A",
"J  c #E0847B",
"K  c #E0887E",
"L  c #A48582",
"P  c #A98380",
"I  c #CA8A84",
"U  c #C79F9B",
"Y  c #D68682",
"T  c #D58885",
"R  c #DD8A83",
"E  c #D98C88",
"W  c #D9958D",
"Q  c #DF9A94",
"!  c #C9A09C",
"~  c #DDA29B",
"^  c #C5A6A1",
"/  c #CDA4A0",
"(  c #D1A9A5",
")  c #D4AAAA",
"_  c #DCA2A1",
"`  c #DAAAAB",
"'  c #D3B3B4",
"]  c #DBB5B6",
"[  c #DDBABB",
"{  c #E08B82",
"}  c #E0928A",
"|  c #E39991",
" . c #E6A39D",
".. c #E3A6A1",
"X. c #E5AAA4",
"o. c #E8ADA7",
"O. c #E3B0AF",
"+. c #E0B0B0",
"@. c #E2B8B4",
"#. c #E0BDBD",
"$. c #E9B9B3",
"%. c #E9C3BF",
"&. c #CDD4D5",
"*. c #CBD9DB",
"=. c #DBC1C2",
"-. c #D9CECF",
";. c #D1D5D6",
":. c #D6D6DB",
">. c #D3D8D9",
",. c #DCDCDC",
"<. c #D6E4E5",
"1. c #DBE1E1",
"2. c #DDE9EA",
"3. c #E2C3C3",
"4. c #E4CECE",
"5. c #EBCBC9",
"6. c #E0D3D3",
"7. c #E2DCDC",
"8. c #EED9D7",
"9. c #E8DEDE",
"0. c #F0C7C2",
"q. c #F1C9C5",
"w. c #F1CDCB",
"e. c #F3D2CF",
"r. c #F2D5D2",
"t. c #F5D9D5",
"y. c #F5DDDB",
"u. c #F5E0DE",
"i. c #E3E4E4",
"p. c #E6E6E8",
"a. c #E5E8E8",
"s. c #EDE2E3",
"d. c #EAEBEB",
"f. c #EEF0EF",
"g. c #E5F0F0",
"h. c #EDF2F2",
"j. c #EEFAFA",
"k. c #F4E2E1",
"l. c #F5E8E6",
"z. c #F8E5E3",
"x. c #F8E9E7",
"c. c #F9EDED",
"v. c #F9F0EE",
"b. c #F2F4F4",
"n. c #F3F7F8",
"m. c #F4FBFB",
"M. c #F9F3F3",
"N. c #FEFEFE",
/* pixels */
"N.N.N.N.N.N.N.N.N.N.N.N.N.N.N.N.N.N.N.N.N.N.N.N.N.N.N.N.N.N.N.N.",
"N.N.N.N.N.N.N.N.N.N.N.N.N.N.N.N.N.N.N.N.N.N.N.N.N.N.N.N.N.N.N.N.",
"N.N.N.N.N.N.N.N.N.N.N.N.N.N.N.N.N.N.N.N.N.N.N.N.N.N.N.N.N.N.N.N.",
"N.N.N.N.N.N.N.N.N.N.N.N.N.N.N.N.N.N.N.N.N.N.N.N.N.N.N.N.N.N.N.N.",
"N.N.N.N.N.N.N.N.N.N.N.N.N.N.N.N.N.N.N.N.N.N.N.N.N.N.N.N.N.N.N.N.",
"N.c.X.|  . . . ...X. .X. ._ _ ~ | } } } H G C V b x z j a Q m.N.",
"N.z.R J K K H G K @.d.g.d.d.d.p.d.d.i.a.i.T y y r 9 5 5 3 : 2.N.",
"N.k.K G G G G S S N  .s.h.d.d.d.d.p.d.a.T y y t e 5 5 5 3 = *.N.",
"N.k.J S S S C Z V V n W 8.m.n.n.n.n.n.R t t t w 4 4 5 5 3 & *.N.",
"N.k.S V C Z { n V V b x C q.N.N.N.M.K y t r q 3 k l 7 @ o & *.N.",
"N.k.A N N Z y.$.c c x z k k X.N.c.C y t e 5 4 k l.S @ + o & *.N.",
"N.y.V v c N y.N.$.x f k s d i W n t w w 5 4 b M.N.C X @ . % *.N.",
"N.y.b z x n y.N.N.q.l u a u y r w r 7 4 4 S M.m.m.B X @ o & *.N.",
"N.y.x k k z y.N.N.N.w.v r t r r 9 7 4 7 K m.m.M.m.V X @ o & *.N.",
"N.t.k s s l y.N.N.N.N.k.n 9 8 7 5 4 9 | j.n.n.h.m.M X @ . & *.m.",
"N.t.j a u s y.N.N.m.n.h.=.k 4 4 O r W a.d.d.f.h.j.m X + . & *.N.",
"N.t.s y y a y.N.N.n.d.=.+.v.G 6 u %.=.` -.1.p.p.n.m   X . & *.m.",
"N.r.p t w y k.N.n.9.] 3.m.N.m.o.k.n.h.4.` [ 1.1.d.m   X . & *.N.",
"N.e.y 9 8 t t.m.7.O.r.N.M.n.n.m.h.f.h.h.7.` ' >.2.m   X . & *.N.",
"N.e.t 7 4 e 5.-.[ z.m.M.n.f.f.f.f.d.d.d.d.i.[ ) >.m + X . % *.N.",
"N.w.q 4 5 q _ 5.v.m.h.b.f.f.d.d.d.d.d.i.i.i.i.-.) ; X X . & *.m.",
"N.w.q 4 5 w [ h.d.d.p.d.p.i.i.i.7.7.,.,.,.,.,.,.>.;   X . & *.N.",
"N.w.q O @ # =.g.a.a.i.1.1.1.1.1.>.>.>.>.;.>.>.;.*.2   X . & *.N.",
"N.q.O o . @ E ) ( ( ( ! / / / / ! ! U ! U U ! U ^ $ . . . % *.N.",
"N.x.I 1 - - < F , , , D D D D D F F F F F F F F P > - - * P >.N.",
"N.N.j.<.*.*.*.>.&.&.&.&.&.&.&.&.&.&.&.&.&.&.&.&.&.*.*.*.*.,.d.N.",
"N.N.N.N.N.N.N.N.N.N.N.N.N.N.N.N.N.N.N.N.N.N.N.N.N.N.N.N.N.N.N.N.",
"N.N.N.N.N.N.N.N.N.N.N.N.N.N.N.N.N.N.N.N.N.N.N.N.N.N.N.N.N.N.N.N.",
"N.N.N.N.N.N.N.N.N.N.N.N.N.N.N.N.N.N.N.N.N.N.N.N.N.N.N.N.N.N.N.N.",
"N.N.N.N.N.N.N.N.N.N.N.N.N.N.N.N.N.N.N.N.N.N.N.N.N.N.N.N.N.N.N.N.",
"N.N.N.N.N.N.N.N.N.N.N.N.N.N.N.N.N.N.N.N.N.N.N.N.N.N.N.N.N.N.N.N.",
"N.N.N.N.N.N.N.N.N.N.N.N.N.N.N.N.N.N.N.N.N.N.N.N.N.N.N.N.N.N.N.N."
};
